<svg width="50" height="53" viewBox="0 0 50 53" fill="none" xmlns="http://www.w3.org/2000/svg">
<path d="M44.0111 37.8538L35.7466 35.7921C35.7157 35.7455 35.6819 35.7007 35.6414 35.6603L33.1797 33.1975V30.8401C33.3846 30.6318 33.5852 30.4156 33.7804 30.1903C36.0773 27.5377 37.4583 23.9642 37.6692 20.1279C37.6777 19.9739 37.6854 19.8203 37.6931 19.6668C37.7188 19.1592 37.7429 18.6799 37.7914 18.1961L38.6064 10.045C38.8583 7.52549 38.0285 5.00393 36.3295 3.12651C34.6305 1.24897 32.2037 0.172241 29.6717 0.172241H20.5362C18.0042 0.172241 15.5775 1.24897 13.8784 3.12639C12.1793 5.00382 11.3495 7.5256 11.6014 10.045L12.4158 18.1906C12.4644 18.6762 12.4889 19.1596 12.5148 19.6715C12.5225 19.8236 12.5301 19.9757 12.5385 20.1279C12.7494 23.9642 14.1304 27.5377 16.4273 30.1903C16.6224 30.4156 16.8231 30.6317 17.0279 30.8401V33.1975L14.5661 35.6601C14.5267 35.6996 14.4935 35.743 14.4632 35.7882L6.19635 37.8539C2.69305 38.7297 0.763672 40.8799 0.763672 43.9084V49.8129C0.763672 51.2764 1.95437 52.4671 3.41795 52.4671H46.79C48.2535 52.4671 49.4442 51.2764 49.4442 49.8129V43.9083C49.4442 40.8799 47.5149 38.7297 44.0111 37.8538ZM24.2004 47.0456H26.0075C26.0706 47.0456 26.1328 47.0426 26.1948 47.0383L26.8305 50.7729H23.3774L24.0131 47.0383C24.0751 47.0426 24.1373 47.0456 24.2004 47.0456ZM26.9676 44.3914C26.9676 44.9207 26.5369 45.3514 26.0075 45.3514H24.2004C23.671 45.3514 23.2403 44.9207 23.2403 44.3914V43.0376L25.104 41.7951L26.9676 43.0376V44.3914ZM18.7224 32.2926C20.6387 33.6624 22.8305 34.3955 25.104 34.3955C27.3774 34.3955 29.5692 33.6624 31.4855 32.2926V33.1975L25.104 39.5791L18.7224 33.1975V32.2926ZM28.2894 41.8826C28.2885 41.882 28.2876 41.8814 28.2867 41.8808L26.4336 40.6453L32.3325 34.7464L33.9931 36.4075C33.4327 37.4185 32.1168 39.7868 30.2588 43.1279C30.2553 43.1343 30.2479 43.1474 30.2272 43.1524C30.2032 43.1583 30.186 43.1469 30.1804 43.1432L28.2894 41.8826ZM15.1346 4.26322C16.513 2.74 18.4819 1.86646 20.5362 1.86646H29.6717C31.7261 1.86646 33.6949 2.74 35.0734 4.26322C36.4518 5.78632 37.1251 7.83226 36.9207 9.87628L36.4048 15.0344C35.2602 12.3067 33.9939 10.5595 33.9193 10.4577C33.6494 10.0894 33.1357 10.0015 32.7587 10.2591C30.5325 11.7789 20.6175 11.9724 16.9842 11.9188C16.7391 11.9142 16.5043 12.0179 16.3408 12.2006C15.3027 13.3594 14.4859 14.6622 13.8801 15.8047L13.2873 9.87639C13.0828 7.83237 13.7562 5.78643 15.1346 4.26322ZM14.2303 20.0349C14.2221 19.8852 14.2145 19.7355 14.207 19.5857C14.2018 19.4822 14.1963 19.3773 14.1908 19.2724C14.3733 18.7542 15.4322 15.8981 17.3539 13.6175C19.6979 13.638 29.2717 13.6226 32.9538 12.061C33.6799 13.2063 35.2105 15.8874 36.018 19.253C36.0121 19.363 36.0066 19.4728 36.0011 19.5813C35.9934 19.7323 35.9858 19.8835 35.9774 20.0349C35.5871 27.1375 30.8109 32.7012 25.104 32.7012C19.397 32.7012 14.6208 27.1375 14.2303 20.0349ZM17.8754 34.7464L23.7743 40.6453L21.9209 41.881C21.9202 41.8814 21.9194 41.882 21.9187 41.8824L20.0275 43.1433C20.022 43.1471 20.0048 43.1584 19.9807 43.1525C19.96 43.1476 19.9526 43.1344 19.9492 43.1282C18.0912 39.7869 16.7753 37.4186 16.2149 36.4076L17.8754 34.7464ZM2.45789 49.8129V43.9084C2.45789 41.6699 3.85393 40.1859 6.60715 39.4976L14.8493 37.4383C15.3377 38.3202 16.3504 40.1425 18.4686 43.9515C18.7047 44.376 19.1106 44.685 19.582 44.7991C19.7171 44.8319 19.8546 44.8479 19.9917 44.8479C20.3355 44.8479 20.6765 44.7467 20.9673 44.5529L21.5462 44.1669V44.3912C21.5462 45.1663 21.8802 45.8647 22.4117 46.3504L21.6589 50.7729H10.5901V46.1985C10.5901 45.7307 10.2109 45.3514 9.74303 45.3514C9.2752 45.3514 8.89592 45.7307 8.89592 46.1985V50.7729H3.41795C2.88856 50.7729 2.45789 50.3422 2.45789 49.8129ZM47.75 49.8129C47.75 50.3422 47.3193 50.7729 46.79 50.7729H41.312V46.1985C41.312 45.7307 40.9327 45.3514 40.4649 45.3514C39.997 45.3514 39.6178 45.7307 39.6178 46.1985V50.7729H28.549L27.7962 46.3506C28.3277 45.8649 28.6617 45.1664 28.6617 44.3914V44.167L29.2406 44.553C29.5314 44.7469 29.8724 44.848 30.2162 44.848C30.3533 44.848 30.4909 44.8319 30.6259 44.7992C31.0973 44.685 31.5032 44.3761 31.7393 43.9515C33.8553 40.1464 34.8681 38.324 35.357 37.441L43.6005 39.4976C46.354 40.1859 47.75 41.6699 47.75 43.9083V49.8129Z" fill="black"/>
</svg>
