<svg width="50" height="52" viewBox="0 0 50 52" fill="none" xmlns="http://www.w3.org/2000/svg">
<path d="M25.1219 6.81909C25.1153 6.81744 25.1087 6.81744 25.1021 6.81909C25.0955 6.81909 25.0889 6.81744 25.0823 6.81744V6.81909C16.5803 6.92298 9.69092 13.8667 9.69092 22.3935C9.69092 30.9219 16.5803 37.8624 25.0823 37.9679V37.9696C25.0889 37.9696 25.0955 37.9696 25.1021 37.9679C25.1087 37.9679 25.1153 37.9696 25.1219 37.9696V37.9679C33.6256 37.8657 40.5133 30.9252 40.5133 22.3935C40.5149 13.87 33.6256 6.92627 25.1219 6.81909Z" fill="black"/>
<path d="M43.3777 35.4829C43.8262 34.8316 44.1296 34.144 44.2599 33.4844C44.4001 32.7902 44.3621 32.1389 44.1791 31.5799L44.1758 31.5766C44.1725 31.565 44.1692 31.5518 44.1659 31.5419C44.156 31.5205 44.1461 31.4974 44.1428 31.4743L44.1395 31.4661C43.8988 30.7801 43.8691 29.9309 44.0538 29.0569L44.0455 29.052C44.0802 28.9036 44.1164 28.7568 44.1643 28.6068C44.2962 28.2077 44.4677 27.8367 44.6639 27.5003C45.4092 26.4499 47.5545 25.543 47.5545 22.2632C47.5545 18.8301 44.7876 17.9001 44.2665 16.4061C44.2533 16.3732 44.2368 16.355 44.2236 16.3253C44.1956 16.2528 44.1676 16.1835 44.1428 16.1093C43.8114 15.0622 43.7834 14.0234 44.0571 13.2039L44.0785 13.1478C44.2566 12.6185 44.3011 11.9836 44.1857 11.3092H44.1841V11.3043C44.1692 11.2185 44.1494 11.1328 44.1313 11.0454L44.1296 11.019C44.1098 10.9415 44.0901 10.8623 44.067 10.7848L44.0488 10.7255C44.0323 10.6579 44.0093 10.5886 43.9829 10.5227L43.9499 10.4336L43.8856 10.2704L43.8361 10.1417L43.7867 10.0362C43.7586 9.9752 43.7322 9.91749 43.7026 9.85812L43.6877 9.83009C43.5508 9.56626 43.3926 9.30572 43.2095 9.05508L43.1765 9.01056L43.1584 8.98747C42.6588 8.30975 42.0618 7.78373 41.4435 7.4391C40.8268 7.09117 40.1919 6.92463 39.6098 6.92957H39.6032C39.5884 6.92957 39.5769 6.92957 39.567 6.92792C39.5422 6.92957 39.5208 6.93122 39.4944 6.92957H39.4845C38.7606 6.94936 37.9411 6.71356 37.1677 6.26504L37.1628 6.26999C37.0358 6.19249 36.9055 6.10839 36.7802 6.0177C35.8947 5.36471 35.2665 4.53858 35.0092 3.71575L34.9895 3.65639C34.8246 3.12378 34.4882 2.58622 33.9968 2.10802V2.10637C33.9341 2.04371 33.8682 1.9827 33.8006 1.92663L33.7775 1.9052C33.7165 1.85408 33.6554 1.80131 33.5911 1.75184L33.5433 1.71392L33.3685 1.58695L33.291 1.53418L33.1426 1.43689L33.0272 1.36599L32.925 1.30827C32.8672 1.27365 32.8095 1.24396 32.7518 1.21428L32.7238 1.19944C32.4616 1.06588 32.1796 0.947152 31.8828 0.851513L31.8301 0.835023L31.7971 0.82348C30.9957 0.572839 30.2025 0.498636 29.4984 0.581083C28.7943 0.66518 28.1826 0.900981 27.7159 1.25221L27.7093 1.25386C27.6994 1.26375 27.6879 1.27035 27.6763 1.27694C27.6598 1.29508 27.6417 1.30827 27.6186 1.31982L27.6137 1.32476C27.0349 1.76998 26.2384 2.0569 25.3463 2.15254V2.16079C25.2655 2.16903 25.1831 2.17068 25.1023 2.17233C25.0199 2.17068 24.9374 2.17068 24.8583 2.16079V2.15419C23.9662 2.05855 23.1681 1.77163 22.5909 1.32641L22.586 1.32147C22.5662 1.30663 22.5464 1.29508 22.5299 1.2753C22.5184 1.2687 22.5068 1.2621 22.4969 1.25221L22.492 1.25056C22.0237 0.899332 21.4119 0.663531 20.7078 0.579435C20.0054 0.496987 19.2139 0.57119 18.4092 0.821831L18.3778 0.833374L18.3251 0.851513C18.0283 0.947152 17.7479 1.06588 17.4841 1.19944L17.4561 1.21428C17.3984 1.24396 17.3407 1.27365 17.2829 1.30827L17.1807 1.36599L17.0653 1.43689L16.9169 1.53418L16.8394 1.58695L16.6679 1.71062L16.6184 1.7502C16.5541 1.79966 16.4931 1.85078 16.4321 1.9019L16.409 1.92334C16.3414 1.9794 16.2754 2.04041 16.2128 2.10307L16.2111 2.10472C15.7197 2.58292 15.385 3.12213 15.2201 3.65309L15.2003 3.7141C14.9447 4.53694 14.3165 5.36471 13.431 6.01605C13.304 6.11004 13.1721 6.19249 13.0468 6.26999L13.0402 6.26339C12.2668 6.71191 11.4489 6.94771 10.725 6.92957H10.7151C10.6888 6.93122 10.6657 6.92957 10.6426 6.92792C10.6277 6.92957 10.6195 6.92957 10.603 6.92957H10.5981C10.0127 6.92463 9.38113 7.08952 8.76442 7.43745C8.14606 7.78209 7.54914 8.3081 7.0495 8.98583L7.02972 9.01056L6.99674 9.05673C6.81205 9.30572 6.6554 9.56791 6.51854 9.83174L6.5037 9.85812C6.47566 9.91749 6.44763 9.9752 6.42125 10.0362L6.37178 10.1417L6.32066 10.2704L6.25635 10.4353L6.22667 10.5227C6.20194 10.5886 6.17885 10.6579 6.16071 10.7238L6.14258 10.7848C6.11949 10.8607 6.0964 10.9398 6.07991 11.019L6.07497 11.047C6.05518 11.1328 6.03374 11.2218 6.02055 11.3043V11.3076C5.90513 11.9836 5.94965 12.6168 6.12938 13.1478L6.14917 13.2039C6.4229 14.0234 6.39487 15.0622 6.06343 16.1093C6.04034 16.1819 6.01066 16.2511 5.98263 16.3237C5.96779 16.3534 5.9513 16.3732 5.93975 16.4045C5.41868 17.8984 2.65173 18.8285 2.65173 22.2616C2.65173 25.5414 4.79702 26.4483 5.54235 27.4987C5.73858 27.8351 5.90842 28.2061 6.04199 28.6051C6.08981 28.7552 6.12773 28.9019 6.16071 29.0504L6.15247 29.0553C6.3388 29.9292 6.31077 30.7785 6.06837 31.4644L6.06507 31.4727C6.06178 31.4958 6.05188 31.5188 6.04199 31.5403C6.03869 31.5535 6.03539 31.5667 6.03209 31.5749L6.0288 31.5782C5.84411 32.1372 5.80784 32.7885 5.948 33.4827C6.07827 34.1407 6.38167 34.83 6.83019 35.4813L0.763672 46.8476H7.23419L10.5206 51.8307L16.1122 42.6229C16.1567 42.6675 16.1864 42.7219 16.2342 42.7647C16.7553 43.2413 17.4412 43.6469 18.2426 43.9091C18.5394 44.0064 18.8363 44.0757 19.1281 44.1218L19.1578 44.1268C19.2254 44.1367 19.2897 44.1433 19.3524 44.1515L19.4744 44.168L19.6096 44.1795L19.7844 44.1911H19.8801H20.0928H20.1521C20.2329 44.1861 20.3154 44.1828 20.3929 44.1746L20.4226 44.173C20.5133 44.1647 20.6006 44.1499 20.6897 44.1383H20.6913C21.3691 44.0377 21.9561 43.8003 22.403 43.4655L22.4508 43.4309C23.112 42.9379 24.0602 42.6477 25.104 42.6163C26.1477 42.6493 27.0959 42.9379 27.7571 43.4309L27.8033 43.4655C28.2502 43.8003 28.8372 44.041 29.5166 44.1383C29.6073 44.1499 29.693 44.1647 29.7837 44.173L29.815 44.1746C29.8942 44.1828 29.9766 44.1861 30.0558 44.1911H30.1151H30.3295H30.4235L30.5983 44.1795L30.7335 44.168L30.8555 44.1515C30.9182 44.1433 30.9825 44.1367 31.0501 44.1268L31.0798 44.1218C31.3733 44.0757 31.6685 44.0064 31.9653 43.9091C32.765 43.6469 33.451 43.2413 33.9753 42.7647C34.0215 42.7219 34.0528 42.6675 34.0957 42.6229L39.689 51.8307L42.9737 46.8492H49.4442L43.3777 35.4829ZM41.1087 27.1524C40.9274 27.7658 40.7146 28.366 40.4623 28.958C39.6115 30.9664 38.3979 32.7704 36.8495 34.3188C35.3028 35.8655 33.5004 37.0841 31.4937 37.93C29.4671 38.7858 27.3202 39.2244 25.104 39.2475C22.8894 39.2244 20.7408 38.7858 18.7159 37.93C16.7075 37.0791 14.9051 35.8655 13.3584 34.3188C11.81 32.772 10.5931 30.9664 9.74555 28.958C9.49491 28.3693 9.28219 27.7658 9.09916 27.1524C8.89798 26.417 8.41979 24.4531 8.41979 22.3952C8.41979 19.7882 9.09916 17.6379 9.09916 17.6379C9.28054 17.0261 9.49326 16.4243 9.74555 15.8307C10.5948 13.8222 11.8117 12.0216 13.3601 10.4732C14.9068 8.92646 16.7091 7.70953 18.7175 6.86032C20.7441 6.00451 22.891 5.56589 25.1056 5.54445C27.3202 5.56589 29.4687 6.00451 31.4953 6.86032C33.5021 7.70953 35.3061 8.92646 36.8511 10.4732C38.3995 12.0216 39.6181 13.8239 40.464 15.8307C40.7146 16.4226 40.9274 17.0261 41.1104 17.6379C41.1104 17.6379 41.7898 19.7882 41.7898 22.3952C41.7881 24.4531 41.3099 26.417 41.1087 27.1524Z" fill="black"/>
</svg>
