<svg width="49" height="54" viewBox="0 0 49 54" fill="none" xmlns="http://www.w3.org/2000/svg">
<path d="M42.0585 37.279L37.1055 44.3952L33.6102 41.5266C33.2332 41.215 32.6747 41.2717 32.3649 41.6487C32.0542 42.0267 32.1091 42.5852 32.4879 42.8941L36.724 46.3716C36.8825 46.5026 37.0816 46.5725 37.2852 46.5725C37.325 46.5725 37.3657 46.5699 37.4064 46.5637C37.6507 46.5301 37.8702 46.3955 38.0119 46.1928L43.5119 38.2898C43.7907 37.8888 43.6924 37.3374 43.2906 37.0577C42.8888 36.7771 42.3382 36.8771 42.0585 37.279Z" fill="#FCC028"/>
<path d="M38.3601 30.6858V6.74295C38.3601 6.25349 37.9636 5.85785 37.475 5.85785H30.3942V4.08765C30.3942 3.59818 29.9977 3.20254 29.5091 3.20254H24.1985V1.43234C24.1985 0.942881 23.802 0.547241 23.3134 0.547241H15.3475C14.8589 0.547241 14.4624 0.942881 14.4624 1.43234V3.20254H9.15179C8.66322 3.20254 8.26669 3.59818 8.26669 4.08765V5.85785H1.18588C0.697307 5.85785 0.300781 6.25349 0.300781 6.74295V50.998C0.300781 51.4875 0.697307 51.8831 1.18588 51.8831H31.3714C33.1433 52.9983 35.2322 53.6533 37.475 53.6533C43.8194 53.6533 48.9813 48.4914 48.9813 42.147C48.9813 36.1009 44.2912 31.1399 38.3601 30.6858ZM16.2326 2.31744H22.4283V4.08765V5.85785H16.2326V4.08765V2.31744ZM10.0369 4.97275H14.4624V6.74295C14.4624 7.23241 14.8589 7.62805 15.3475 7.62805H23.3134C23.802 7.62805 24.1985 7.23241 24.1985 6.74295V4.97275H28.624V6.74295V8.51315H10.0369V6.74295V4.97275ZM2.07098 50.1129V7.62805H8.26669V9.39825C8.26669 9.88771 8.66322 10.2834 9.15179 10.2834H29.5091C29.9977 10.2834 30.3942 9.88771 30.3942 9.39825V7.62805H36.5899V30.6743C36.5395 30.6779 36.4908 30.6885 36.4403 30.6929C36.2677 30.7088 36.0978 30.7336 35.9279 30.7575C35.7252 30.785 35.5216 30.8124 35.3225 30.8496C35.1516 30.8823 34.9852 30.923 34.8171 30.9629C34.6232 31.0089 34.4294 31.0558 34.24 31.1116C34.0745 31.1602 33.9125 31.216 33.7505 31.2718C33.5646 31.3355 33.3805 31.401 33.1991 31.4744C33.0407 31.5382 32.8849 31.6072 32.7291 31.678C32.5521 31.7586 32.3777 31.8418 32.206 31.9303C32.0547 32.0082 31.906 32.0905 31.759 32.1754C31.5926 32.271 31.4289 32.3702 31.2678 32.4746C31.1244 32.5667 30.9837 32.6614 30.8456 32.7596C30.689 32.8702 30.5367 32.9853 30.3863 33.1039C30.2535 33.2084 30.1225 33.3137 29.995 33.4234C29.849 33.5491 29.7074 33.6792 29.5684 33.812C29.4472 33.9271 29.3268 34.043 29.2099 34.1634C29.0754 34.3023 28.9471 34.4466 28.8196 34.5927C28.7099 34.7183 28.6001 34.8431 28.4966 34.9732C28.3744 35.1255 28.2602 35.283 28.1461 35.4415C28.0496 35.576 27.9513 35.7088 27.8602 35.8477C27.7513 36.0132 27.6522 36.1841 27.5513 36.3549C27.469 36.4965 27.384 36.6355 27.307 36.7797C27.2123 36.9594 27.1282 37.1444 27.0423 37.3285C26.9751 37.4745 26.9034 37.6179 26.8414 37.7675C26.7618 37.9613 26.6936 38.1605 26.6246 38.3588C26.5724 38.5066 26.5157 38.6526 26.4697 38.8031C26.4051 39.0155 26.3555 39.2332 26.3033 39.4501C26.2688 39.5944 26.2272 39.7351 26.1971 39.8811C26.1484 40.1245 26.1165 40.3741 26.0838 40.6228C26.067 40.7485 26.0422 40.8707 26.0289 40.9972C25.9891 41.377 25.9687 41.7593 25.9687 42.147C25.9687 42.532 25.9891 42.9144 26.0271 43.2923C26.0413 43.4357 26.0696 43.5738 26.0891 43.7163C26.1209 43.9491 26.1493 44.1818 26.1953 44.4111C26.2263 44.566 26.2705 44.7164 26.3077 44.8696C26.359 45.0811 26.4068 45.2935 26.4706 45.5015C26.5139 45.6423 26.5679 45.7786 26.6166 45.9175C26.691 46.1326 26.7644 46.3486 26.852 46.5583C26.9007 46.6761 26.9583 46.7885 27.0114 46.9035C27.1131 47.1283 27.2167 47.3523 27.3327 47.57C27.384 47.6647 27.4415 47.7559 27.4955 47.8488C27.6265 48.0781 27.7593 48.3046 27.9062 48.5241C27.9602 48.6047 28.0195 48.6808 28.0753 48.7605C28.231 48.9817 28.3903 49.2012 28.5629 49.4119C28.6267 49.4898 28.6957 49.5624 28.7612 49.6385C28.8984 49.7978 29.0294 49.9607 29.1754 50.1129H2.07098ZM37.475 51.8831C35.4765 51.8831 33.6169 51.2759 32.0697 50.2395C31.7679 50.0377 31.4829 49.8182 31.2094 49.588C31.1138 49.5075 31.0235 49.4199 30.9315 49.3349C30.7571 49.1765 30.5881 49.0136 30.427 48.8446C30.3234 48.7357 30.2234 48.625 30.1251 48.5126C29.98 48.3462 29.8437 48.1728 29.7109 47.9966C29.6259 47.8842 29.5383 47.7745 29.4578 47.6585C29.2622 47.3744 29.0781 47.0823 28.9134 46.7796C28.8754 46.7088 28.8453 46.6336 28.809 46.5628C28.6798 46.3096 28.5594 46.0529 28.4523 45.7892C28.4063 45.6741 28.3664 45.5564 28.324 45.4387C28.2408 45.2068 28.1646 44.9722 28.0983 44.7341C28.0646 44.6111 28.0319 44.489 28.0027 44.3642C27.9434 44.1119 27.8973 43.8561 27.8584 43.5986C27.8416 43.4879 27.8203 43.3791 27.8079 43.2666C27.7663 42.8976 27.7389 42.524 27.7389 42.147C27.7389 36.7789 32.1069 32.4109 37.475 32.4109C42.8432 32.4109 47.2111 36.7789 47.2111 42.147C47.2111 47.5151 42.8432 51.8831 37.475 51.8831Z" fill="black"/>
<path d="M6.49692 16.4791H18.0032C18.4918 16.4791 18.8883 16.0834 18.8883 15.594C18.8883 15.1045 18.4918 14.7089 18.0032 14.7089H6.49692C6.00834 14.7089 5.61182 15.1045 5.61182 15.594C5.61182 16.0834 6.00834 16.4791 6.49692 16.4791Z" fill="black"/>
<path d="M18.0032 41.2618H6.49692C6.00834 41.2618 5.61182 41.6574 5.61182 42.1469C5.61182 42.6363 6.00834 43.032 6.49692 43.032H18.0032C18.4918 43.032 18.8883 42.6363 18.8883 42.1469C18.8883 41.6574 18.4918 41.2618 18.0032 41.2618Z" fill="black"/>
<path d="M6.49692 21.7896H32.1648C32.6534 21.7896 33.0499 21.394 33.0499 20.9045C33.0499 20.415 32.6534 20.0194 32.1648 20.0194H6.49692C6.00834 20.0194 5.61182 20.415 5.61182 20.9045C5.61182 21.394 6.00834 21.7896 6.49692 21.7896Z" fill="black"/>
<path d="M6.49692 32.4109H27.7393C28.2279 32.4109 28.6244 32.0152 28.6244 31.5258C28.6244 31.0363 28.2279 30.6407 27.7393 30.6407H6.49692C6.00834 30.6407 5.61182 31.0363 5.61182 31.5258C5.61182 32.0152 6.00834 32.4109 6.49692 32.4109Z" fill="black"/>
<path d="M23.3138 35.9512H6.49692C6.00834 35.9512 5.61182 36.3469 5.61182 36.8363C5.61182 37.3258 6.00834 37.7214 6.49692 37.7214H23.3138C23.8024 37.7214 24.1989 37.3258 24.1989 36.8363C24.1989 36.3469 23.8024 35.9512 23.3138 35.9512Z" fill="black"/>
<path d="M6.49692 27.1003H18.8883C19.3769 27.1003 19.7734 26.7046 19.7734 26.2152C19.7734 25.7257 19.3769 25.3301 18.8883 25.3301H6.49692C6.00834 25.3301 5.61182 25.7257 5.61182 26.2152C5.61182 26.7046 6.00834 27.1003 6.49692 27.1003Z" fill="black"/>
<path d="M32.1648 25.3301H25.9691C25.4805 25.3301 25.084 25.7257 25.084 26.2152C25.084 26.7046 25.4805 27.1003 25.9691 27.1003H32.1648C32.6534 27.1003 33.0499 26.7046 33.0499 26.2152C33.0499 25.7257 32.6534 25.3301 32.1648 25.3301Z" fill="black"/>
</svg>
