<svg width="66" height="31" viewBox="0 0 66 31" fill="none" xmlns="http://www.w3.org/2000/svg">
<g filter="url(#filter0_d_121_458)">
<path d="M11.4929 22.8357C9.37435 22.8357 7.70234 22.2126 6.47688 20.9664C5.25143 19.6994 4.63871 18.0066 4.63871 15.888C4.63871 12.544 6.03032 9.51155 8.81355 6.79063C7.75426 5.87673 7.22462 4.87975 7.22462 3.79969C7.22462 1.84728 8.38776 0.871072 10.714 0.871072C11.3164 0.871072 11.898 0.964539 12.4588 1.15147C13.0403 1.31763 13.6011 1.57726 14.1412 1.93036L14.1723 1.96152C14.2138 1.98229 14.2242 2.01344 14.2035 2.05498C14.2035 2.07575 14.2035 2.10691 14.2035 2.14845C14.2035 2.21076 14.1827 2.24192 14.1412 2.24192C14.1204 2.24192 14.0581 2.21076 13.9542 2.14845C13.0196 1.58765 12.0745 1.30725 11.1191 1.30725C10.2052 1.30725 9.44705 1.52534 8.84471 1.96152C8.15928 2.41846 7.81657 3.10389 7.81657 4.01778C7.81657 4.89014 8.25275 5.73134 9.12511 6.54138C11.8253 4.02817 15.2212 2.77156 19.313 2.77156C20.6838 2.77156 21.8677 2.96888 22.8647 3.36352C24.2979 3.88277 25.0144 4.71359 25.0144 5.85596C25.0144 6.72832 24.4433 7.48643 23.3009 8.13032C22.9062 8.37956 22.4701 8.59765 21.9924 8.78458C21.5146 8.95075 21.0058 9.08575 20.4657 9.1896C19.5311 9.37654 18.5237 9.47 17.4436 9.47C14.5981 9.47 12.1576 8.87805 10.1221 7.69414C7.77503 10.332 6.60151 13.1879 6.60151 16.2619C6.60151 17.9443 6.98576 19.3567 7.75426 20.4991C8.62662 21.8284 9.87284 22.493 11.4929 22.493C14.5877 22.493 17.1217 21.0079 19.0949 18.0378C19.7595 17.02 20.0919 16.0958 20.0919 15.2649C20.0919 14.538 19.8426 13.946 19.3441 13.4891C18.8664 13.0114 18.2641 12.7725 17.5371 12.7725C16.8309 12.7725 16.1766 12.9802 15.5743 13.3956C14.9512 13.7902 14.5046 14.3303 14.2346 15.0157C14.1723 15.1819 14.0996 15.2649 14.0165 15.2649C13.9334 15.2649 13.8919 15.213 13.8919 15.1092C13.8919 15.0884 13.8919 15.0676 13.8919 15.0468C13.9127 15.0053 13.9231 14.9742 13.9231 14.9534C14.1931 14.1849 14.6916 13.5825 15.4185 13.1464C16.104 12.7102 16.8621 12.4921 17.6929 12.4921C18.586 12.4921 19.3337 12.7621 19.9361 13.3021C20.4969 13.8629 20.7773 14.5795 20.7773 15.4519C20.7773 16.4488 20.4761 17.4043 19.8738 18.3182C19.043 19.6475 17.8279 20.7379 16.2286 21.5895C14.6916 22.4203 13.113 22.8357 11.4929 22.8357ZM16.6959 9.06498C17.4644 9.06498 18.2225 9.00267 18.9703 8.87805C19.718 8.75343 20.4657 8.58726 21.2135 8.37956C23.2905 7.71491 24.329 6.80101 24.329 5.63787C24.329 3.97624 22.7401 3.14543 19.5622 3.14543C16.1766 3.14543 13.113 4.57858 10.3713 7.44489C12.2407 8.52495 14.3489 9.06498 16.6959 9.06498ZM30.3932 21.4337C29.3131 21.4337 28.7731 20.686 28.7731 19.1905C28.7731 18.609 28.8665 17.9443 29.0535 17.1966C27.5995 20.0006 26.156 21.4026 24.7228 21.4026C24.0374 21.4026 23.5182 21.0599 23.1651 20.3744C22.8743 19.8552 22.7289 19.2009 22.7289 18.4116C22.7289 17.7678 22.8224 17.0927 23.0093 16.3865C23.3624 15.1611 24.1101 14.0083 25.2525 12.9283C26.5195 11.7651 27.7242 11.1836 28.8665 11.1836C29.905 11.1836 30.4243 11.8067 30.4243 13.0529C30.4243 13.5929 30.3101 14.2264 30.0816 14.9534L31.9821 11.2147H32.0756C32.1379 11.3186 32.2729 11.3705 32.4806 11.3705C32.896 11.3705 33.4256 11.1212 34.0695 10.6228L34.1318 10.6851L31.4836 15.8569C30.4243 17.9132 29.8947 19.4709 29.8947 20.5302C29.8947 20.9456 30.0816 21.1533 30.4555 21.1533C30.7047 21.1533 31.0059 21.0599 31.359 20.8729C31.7121 20.686 32.0859 20.3744 32.4806 19.9383C32.9791 19.3567 33.4049 18.8063 33.758 18.287C34.1318 17.747 34.5576 17.02 35.0353 16.1061C35.0976 16.0023 35.16 15.9504 35.2223 15.9504C35.3469 15.9504 35.3469 16.0542 35.2223 16.2619C34.8484 16.9681 34.4434 17.6743 34.0072 18.3805C33.5918 19.0659 33.0829 19.7098 32.4806 20.3121C31.7328 21.0599 31.037 21.4337 30.3932 21.4337ZM24.8475 21.1845C26.0106 21.1845 27.5061 19.5436 29.3339 16.2619C29.9154 15.2234 30.2062 14.1745 30.2062 13.1152C30.2062 11.9936 29.8427 11.4328 29.1158 11.4328C28.3265 11.4328 27.4334 12.0871 26.4364 13.3956C26.0418 13.9356 25.699 14.4653 25.4083 14.9845C25.1382 15.5038 24.9202 16.0023 24.754 16.48C24.3178 17.7262 24.0997 18.8478 24.0997 19.8448C24.0997 20.7379 24.349 21.1845 24.8475 21.1845ZM37.0894 21.5895C35.407 21.5895 34.5658 20.4783 34.5658 18.2559C34.5658 16.9266 34.8566 15.3792 35.4382 13.6137C35.7082 12.8036 35.999 12.0248 36.3105 11.277C36.6221 10.5293 36.9544 9.83349 37.3075 9.1896C37.7437 8.40033 38.2006 7.6526 38.6783 6.9464C39.1561 6.21944 39.6649 5.53402 40.205 4.89014C41.7627 2.95849 43.092 1.99267 44.1929 1.99267C44.6498 1.99267 44.8783 2.21076 44.8783 2.64694C44.8783 3.22851 44.6394 4.12163 44.1617 5.32632C42.5624 9.29346 39.9661 12.9075 36.3728 16.1684C36.0197 17.477 35.8432 18.5259 35.8432 19.3152C35.8432 20.6652 36.269 21.3403 37.1206 21.3403C37.4113 21.3403 37.6917 21.2883 37.9618 21.1845C38.2318 21.0599 38.4706 20.9249 38.6783 20.7795C39.2391 20.3433 39.7169 19.8344 40.1115 19.2528C40.5061 18.6713 40.8488 18.0897 41.1396 17.5081C41.4304 16.9266 41.69 16.4385 41.9185 16.0438C41.9808 15.94 42.0431 15.9088 42.1055 15.9504C42.1678 15.9711 42.1781 16.0334 42.1366 16.1373C41.7212 17.0096 41.2643 17.9028 40.7658 18.8167C40.2673 19.7306 39.6338 20.4575 38.8653 20.9976C38.3045 21.3922 37.7125 21.5895 37.0894 21.5895ZM36.4663 15.8569C36.8817 15.5038 37.3179 15.0676 37.7748 14.5484C38.2318 14.0291 38.7199 13.4371 39.2391 12.7725C39.7584 12.1078 40.288 11.3705 40.8281 10.5604C41.3681 9.7504 41.9081 8.87805 42.4482 7.94338C43.9021 5.47171 44.6291 3.74777 44.6291 2.77156C44.6291 2.41846 44.5148 2.24192 44.2863 2.24192C43.5178 2.24192 42.147 3.89316 40.1738 7.19565C39.6545 8.13032 39.1872 9.03383 38.7718 9.90618C38.2733 11.007 37.8268 12.0559 37.4321 13.0529C37.0583 14.0291 36.7363 14.9638 36.4663 15.8569ZM43.9663 21.6518C42.9485 21.6518 42.2423 21.3714 41.8477 20.8106C41.453 20.2291 41.2557 19.419 41.2557 18.3805C41.2557 16.885 41.8788 15.3272 43.1251 13.7072C44.4544 12.004 45.8356 11.1524 47.2688 11.1524C48.328 11.1524 48.8577 11.5159 48.8577 12.2428C48.8577 13.136 48.3696 14.0706 47.3934 15.0468C46.0018 16.4592 44.5374 17.1654 43.0004 17.1654C42.7512 17.8093 42.6266 18.4532 42.6266 19.0971C42.6266 19.8033 42.7616 20.3537 43.0316 20.7483C43.3016 21.143 43.6962 21.3403 44.2155 21.3403C44.7555 21.3403 45.3163 21.1949 45.8979 20.9041C46.4795 20.5925 46.978 20.2291 47.3934 19.8136C47.7465 19.4606 48.1411 18.9828 48.5773 18.3805C49.0342 17.7574 49.4912 16.9993 49.9481 16.1061C50.0104 16.0023 50.0728 15.9504 50.1351 15.9504C50.2597 15.9504 50.2597 16.0542 50.1351 16.2619C49.782 16.9681 49.3977 17.6431 48.9823 18.287C48.5877 18.9309 48.058 19.554 47.3934 20.1564C46.9987 20.551 46.5002 20.9041 45.8979 21.2156C45.2956 21.5064 44.6517 21.6518 43.9663 21.6518ZM43.0316 16.9473C44.174 16.9473 45.4513 16.3346 46.8637 15.1092V15.078C47.2584 14.7457 47.6322 14.2887 47.9853 13.7072C48.4007 13.0633 48.6084 12.5129 48.6084 12.0559C48.6084 11.7236 48.3592 11.5574 47.8607 11.5574C47.0714 11.5574 46.116 12.2636 44.9944 13.676C44.4751 14.2991 44.0597 14.8807 43.7482 15.4207C43.4366 15.9607 43.1978 16.4696 43.0316 16.9473ZM51.7797 21.5584C50.2635 21.5584 49.5054 20.5198 49.5054 18.4428C49.5054 18.1312 49.5262 17.8197 49.5677 17.5081C49.6092 17.1966 49.6715 16.885 49.7546 16.5735C50.2739 14.6003 50.9593 12.7517 51.8109 11.0278C52.1432 10.3424 52.4963 9.67771 52.8702 9.03383C53.2648 8.38995 53.6698 7.77722 54.0852 7.19565C54.5214 6.59331 54.9784 6.01174 55.4561 5.45094C55.9338 4.89014 56.4323 4.37088 56.9516 3.89316C58.4263 2.52232 59.6517 1.83689 60.6279 1.83689C61.5003 1.83689 61.9364 2.2523 61.9364 3.08312C61.9364 3.74777 61.6353 4.59935 61.0329 5.63787C60.5344 6.51023 59.9944 7.23719 59.4128 7.81876C57.6474 9.64655 55.4249 11.3601 52.7456 12.9594C51.4163 16.1165 50.7516 18.3805 50.7516 19.7513C50.7516 20.2914 50.8451 20.686 51.032 20.9352C51.2397 21.1637 51.5305 21.278 51.9044 21.278C52.4028 21.278 52.8598 21.1014 53.2752 20.7483C53.7114 20.3952 54.106 19.959 54.4591 19.4398C54.8122 18.9205 55.1238 18.3909 55.3938 17.8508C55.6638 17.3108 55.8715 16.8435 56.0169 16.4488C55.9754 16.345 55.9234 16.1477 55.8611 15.8569C55.8196 15.5453 55.7988 15.2338 55.7988 14.9222C55.7988 14.5691 55.8403 14.268 55.9234 14.0187C56.0065 13.7487 56.1519 13.6137 56.3596 13.6137C56.6919 13.6137 56.8581 13.8629 56.8581 14.3614C56.8581 14.6314 56.8166 14.943 56.7335 15.2961C56.6504 15.6492 56.5154 16.0231 56.3284 16.4177C56.37 16.8954 56.4635 17.3004 56.6088 17.6328C56.7542 17.9651 57.0035 18.1312 57.3566 18.1312C57.7097 18.1312 58.042 17.9547 58.3536 17.6016C58.6651 17.2277 58.9767 16.7292 59.2882 16.1061C59.2882 16.0854 59.309 16.075 59.3505 16.075C59.3921 16.075 59.4232 16.1061 59.444 16.1684C59.4855 16.21 59.4855 16.2619 59.444 16.3242C59.1532 16.9681 58.8417 17.4666 58.5093 17.8197C58.177 18.1728 57.772 18.3493 57.2943 18.3493C56.6088 18.3493 56.2142 17.8405 56.1104 16.8227C54.9057 19.9798 53.4621 21.5584 51.7797 21.5584ZM52.9636 12.5544C55.643 10.7474 57.6993 9.12729 59.1324 7.69414C60.7733 6.01174 61.5937 4.45396 61.5937 3.02081C61.5937 2.35615 61.2718 2.02383 60.6279 2.02383C59.5063 2.02383 58.0212 3.48814 56.1727 6.41676C55.5911 7.35143 55.0303 8.33802 54.4903 9.37654C53.971 10.3943 53.4621 11.4536 52.9636 12.5544Z" fill="#0E0E0E"/>
</g>
<defs>
<filter id="filter0_d_121_458" x="0.638672" y="0.871063" width="65.2979" height="29.9647" filterUnits="userSpaceOnUse" color-interpolation-filters="sRGB">
<feFlood flood-opacity="0" result="BackgroundImageFix"/>
<feColorMatrix in="SourceAlpha" type="matrix" values="0 0 0 0 0 0 0 0 0 0 0 0 0 0 0 0 0 0 127 0" result="hardAlpha"/>
<feOffset dy="4"/>
<feGaussianBlur stdDeviation="2"/>
<feComposite in2="hardAlpha" operator="out"/>
<feColorMatrix type="matrix" values="0 0 0 0 0 0 0 0 0 0 0 0 0 0 0 0 0 0 0.25 0"/>
<feBlend mode="normal" in2="BackgroundImageFix" result="effect1_dropShadow_121_458"/>
<feBlend mode="normal" in="SourceGraphic" in2="effect1_dropShadow_121_458" result="shape"/>
</filter>
</defs>
</svg>
