<svg width="24" height="25" viewBox="0 0 24 25" fill="none" xmlns="http://www.w3.org/2000/svg">
<g clip-path="url(#clip0_122_2009)">
<path d="M2.26946 16.2616H12.11V18.0697H18.2615V16.2655H20.7054C20.8637 18.4158 20.8761 20.3304 18.6707 21.7897C18.6437 21.8075 18.6221 21.8318 18.5623 21.885C18.8335 22.1103 19.1009 22.3329 19.3655 22.5529C19.0082 22.8945 18.7212 23.169 18.3922 23.4842C18.1019 23.1848 17.7879 22.8373 17.4458 22.5207C17.3453 22.4275 17.1673 22.3894 17.0215 22.3802C16.7831 22.3657 16.5414 22.4045 16.301 22.4052C13.1057 22.4071 9.91048 22.4065 6.71457 22.4065C6.56154 22.4065 6.398 22.436 6.25679 22.3933C5.83054 22.2653 5.55994 22.4629 5.30642 22.7684C5.09034 23.0284 4.84405 23.2629 4.61877 23.5007C4.31468 23.1808 4.03949 22.8918 3.73474 22.5707C3.939 22.39 4.19843 22.1602 4.49004 21.9014C4.28906 21.7576 4.13866 21.6577 3.99614 21.5474C2.92821 20.7244 2.3509 19.6329 2.27537 18.2924C2.23793 17.6284 2.2688 16.9604 2.2688 16.2616H2.26946Z" fill="white"/>
<path d="M2.27554 11.2871C2.27029 11.1682 2.26109 11.0612 2.26109 10.9541C2.26044 9.21363 2.25847 7.47381 2.26109 5.73333C2.26372 3.82078 3.59108 2.48619 5.50101 2.49998C6.14203 2.50458 6.80275 2.49145 7.41882 2.63659C8.5117 2.89471 9.20001 3.65264 9.53235 4.72057C9.59671 4.92811 9.68012 5.0286 9.90803 5.09034C11.194 5.43909 12.0964 6.641 12.1128 7.98216C12.1155 8.19824 12.1128 8.41432 12.1128 8.64879H6.02578C5.73548 7.11389 6.56959 5.52973 8.31335 5.03517C8.15573 4.35014 7.48121 3.77217 6.7732 3.74722C6.23792 3.72817 5.70067 3.7262 5.16539 3.74722C4.24261 3.78334 3.50044 4.63059 3.4965 5.64663C3.48994 7.39762 3.49453 9.14926 3.49453 10.9002C3.49453 11.0198 3.49453 11.1393 3.49453 11.2864H2.27423L2.27554 11.2871Z" fill="white"/>
<path d="M12.0931 15.0327C11.9644 15.0327 11.8678 15.0327 11.7713 15.0327C8.64366 15.0327 5.5154 15.0334 2.38779 15.0321C1.71459 15.0321 1.23054 14.7135 1.06043 14.1697C0.804289 13.3514 1.38423 12.5632 2.26826 12.5514C3.20877 12.5389 4.14929 12.5481 5.0898 12.5481C7.29922 12.5481 9.50799 12.5481 11.7174 12.5481C11.8356 12.5481 11.9538 12.5481 12.0931 12.5481V15.0321V15.0327Z" fill="white"/>
<path d="M17.0237 16.8711H13.3634C13.3575 16.7555 13.3477 16.6504 13.3477 16.5453C13.3464 15.2771 13.3464 14.0082 13.3477 12.7399C13.3483 11.8224 13.8494 11.318 14.763 11.3141C15.1019 11.3128 15.4408 11.3055 15.7797 11.316C16.5409 11.3403 17.0381 11.852 17.0401 12.6152C17.044 13.9386 17.0414 15.2613 17.0401 16.5848C17.0401 16.6708 17.0309 16.7562 17.0237 16.8711Z" fill="white"/>
<path d="M18.2832 15.0209V12.5482C18.8782 12.5482 19.4648 12.5462 20.0506 12.5488C20.356 12.5501 20.668 12.5252 20.9668 12.5744C21.619 12.6821 22.0433 13.2161 22.0164 13.8394C21.9901 14.4509 21.5389 14.9756 20.8985 15.0091C20.0394 15.0544 19.1764 15.0203 18.2839 15.0203L18.2832 15.0209Z" fill="white"/>
</g>
<defs>
<clipPath id="clip0_122_2009">
<rect width="21.0171" height="21" fill="white" transform="translate(1 2.5)"/>
</clipPath>
</defs>
</svg>
