<svg width="61" height="60" viewBox="0 0 61 60" fill="none" xmlns="http://www.w3.org/2000/svg">
<rect x="1.25" y="0.5" width="59" height="59" rx="29.5" stroke="url(#paint0_linear_139_6466)"/>
<rect x="1.25" y="0.5" width="59" height="59" rx="29.5" stroke="url(#paint1_linear_139_6466)"/>
<rect x="9.25" y="8.5" width="43" height="43" rx="21.5" stroke="url(#paint2_linear_139_6466)"/>
<rect x="9.25" y="8.5" width="43" height="43" rx="21.5" stroke="url(#paint3_linear_139_6466)"/>
<path fill-rule="evenodd" clip-rule="evenodd" d="M19.9502 21.3C19.9502 20.803 20.3531 20.4 20.8502 20.4H33.4502C33.9473 20.4 34.3502 20.803 34.3502 21.3C34.3502 21.7971 33.9473 22.2 33.4502 22.2H33.1502V38.7C33.1502 39.1971 32.7473 39.6 32.2502 39.6H30.4502C29.9531 39.6 29.5502 39.1971 29.5502 38.7V35.7C29.5502 35.203 29.1473 34.8 28.6502 34.8H25.6502C25.1531 34.8 24.7502 35.203 24.7502 35.7V38.7C24.7502 39.1971 24.3473 39.6 23.8502 39.6H20.8502C20.3531 39.6 19.9502 39.1971 19.9502 38.7C19.9502 38.203 20.3531 37.8 20.8502 37.8H21.1502V22.2H20.8502C20.3531 22.2 19.9502 21.7971 19.9502 21.3ZM23.5502 24.6C23.5502 24.2687 23.8188 24 24.1502 24H25.3502C25.6816 24 25.9502 24.2687 25.9502 24.6V25.8C25.9502 26.1314 25.6816 26.4 25.3502 26.4H24.1502C23.8188 26.4 23.5502 26.1314 23.5502 25.8V24.6ZM24.1502 28.8C23.8188 28.8 23.5502 29.0687 23.5502 29.4V30.6C23.5502 30.9314 23.8188 31.2 24.1502 31.2H25.3502C25.6816 31.2 25.9502 30.9314 25.9502 30.6V29.4C25.9502 29.0687 25.6816 28.8 25.3502 28.8H24.1502ZM28.3502 24.6C28.3502 24.2687 28.6188 24 28.9502 24H30.1502C30.4816 24 30.7502 24.2687 30.7502 24.6V25.8C30.7502 26.1314 30.4816 26.4 30.1502 26.4H28.9502C28.6188 26.4 28.3502 26.1314 28.3502 25.8V24.6ZM28.9502 28.8C28.6188 28.8 28.3502 29.0687 28.3502 29.4V30.6C28.3502 30.9314 28.6188 31.2 28.9502 31.2H30.1502C30.4816 31.2 30.7502 30.9314 30.7502 30.6V29.4C30.7502 29.0687 30.4816 28.8 30.1502 28.8H28.9502Z" fill="#A685FA"/>
<path fill-rule="evenodd" clip-rule="evenodd" d="M35.8502 25.2C35.3531 25.2 34.9502 25.603 34.9502 26.1V38.4C34.9502 39.0628 35.4875 39.6 36.1502 39.6H40.6502C41.1473 39.6 41.5502 39.1971 41.5502 38.7C41.5502 38.203 41.1473 37.8 40.6502 37.8H40.3502V27H40.6502C41.1473 27 41.5502 26.5971 41.5502 26.1C41.5502 25.603 41.1473 25.2 40.6502 25.2H35.8502ZM36.4502 29.4C36.4502 29.0687 36.7188 28.8 37.0502 28.8H38.2502C38.5816 28.8 38.8502 29.0687 38.8502 29.4V30.6C38.8502 30.9314 38.5816 31.2 38.2502 31.2H37.0502C36.7188 31.2 36.4502 30.9314 36.4502 30.6V29.4ZM37.0502 33.6C36.7188 33.6 36.4502 33.8687 36.4502 34.2V35.4C36.4502 35.7314 36.7188 36 37.0502 36H38.2502C38.5816 36 38.8502 35.7314 38.8502 35.4V34.2C38.8502 33.8687 38.5816 33.6 38.2502 33.6H37.0502Z" fill="#A685FA"/>
<defs>
<linearGradient id="paint0_linear_139_6466" x1="5.68903" y1="63.2927" x2="63.4939" y2="-4.02439" gradientUnits="userSpaceOnUse">
<stop stop-color="#A685FA"/>
<stop offset="0.323723" stop-color="#A685FA" stop-opacity="0"/>
</linearGradient>
<linearGradient id="paint1_linear_139_6466" x1="60.5671" y1="-7.68292" x2="5.68902" y2="60" gradientUnits="userSpaceOnUse">
<stop stop-color="#A685FA"/>
<stop offset="0.576615" stop-color="#A685FA" stop-opacity="0"/>
</linearGradient>
<linearGradient id="paint2_linear_139_6466" x1="3.95968" y1="10.4839" x2="52.5726" y2="52" gradientUnits="userSpaceOnUse">
<stop stop-color="#A685FA"/>
<stop offset="0.323723" stop-color="#A685FA" stop-opacity="0"/>
</linearGradient>
<linearGradient id="paint3_linear_139_6466" x1="61.4435" y1="61.9355" x2="10.3468" y2="25.7419" gradientUnits="userSpaceOnUse">
<stop stop-color="#A685FA"/>
<stop offset="0.576615" stop-color="#A685FA" stop-opacity="0"/>
</linearGradient>
</defs>
</svg>
