<svg width="28" height="28" viewBox="0 0 28 28" fill="none" xmlns="http://www.w3.org/2000/svg">
<path d="M14.0003 27.3333C6.63653 27.3333 0.666992 21.3638 0.666992 14C0.666992 6.63616 6.63653 0.666626 14.0003 0.666626C21.3641 0.666626 27.3337 6.63616 27.3337 14C27.3256 21.3604 21.3608 27.3252 14.0003 27.3333ZM14.0003 3.33329C8.10929 3.33329 3.33366 8.10892 3.33366 14C3.33366 19.891 8.10929 24.6666 14.0003 24.6666C19.8914 24.6666 24.667 19.891 24.667 14C24.6604 8.11166 19.8886 3.33991 14.0003 3.33329ZM19.3337 20.6666H8.66699V18H19.3337V20.6666ZM9.33366 14C8.22909 14 7.33366 13.1045 7.33366 12C7.33366 10.8954 8.22909 9.99996 9.33366 9.99996C10.4382 9.99996 11.3337 10.8954 11.3337 12C11.3337 13.1045 10.4382 14 9.33366 14ZM18.6577 13.9813C17.5582 13.9813 16.667 13.09 16.667 11.9906C16.667 10.8912 17.5582 9.99996 18.6577 9.99996C19.7571 9.99996 20.6483 10.8912 20.6483 11.9906C20.6469 13.0894 19.7565 13.9798 18.6577 13.9813Z" fill="#E74040"/>
</svg>
