<svg width="17" height="12" viewBox="0 0 17 12" fill="none" xmlns="http://www.w3.org/2000/svg">
<path d="M0.5 6C0.5 6 3.5 0.5 8.5 0.5C13.5 0.5 16.5 6 16.5 6C16.5 6 13.5 11.5 8.5 11.5C3.5 11.5 0.5 6 0.5 6ZM8.5 9.5C9.42826 9.5 10.3185 9.13125 10.9749 8.47487C11.6313 7.8185 12 6.92826 12 6C12 5.07174 11.6313 4.1815 10.9749 3.52513C10.3185 2.86875 9.42826 2.5 8.5 2.5C7.57174 2.5 6.6815 2.86875 6.02513 3.52513C5.36875 4.1815 5 5.07174 5 6C5 6.92826 5.36875 7.8185 6.02513 8.47487C6.6815 9.13125 7.57174 9.5 8.5 9.5Z" fill="black"/>
</svg>
