<svg width="15" height="14" viewBox="0 0 15 14" fill="none" xmlns="http://www.w3.org/2000/svg">
<path d="M14.5 2.307L13.8425 2.5255C12.9214 2.81404 11.9649 2.97373 11 3C10.133 3 9.339 2.5465 8.498 2.066C7.581 1.542 6.633 1 5.5 1C4.0615 1 2.4575 2.103 1.5 2.886V0H0.5V13C0.500265 13.2651 0.605707 13.5193 0.793186 13.7068C0.980665 13.8943 1.23486 13.9997 1.5 14H14.5V2.307ZM1.5 9.147C2.437 7.688 4.28 5.5 5.5 5.5C6.319 5.5 6.98 6.051 7.68 6.6345C8.4485 7.2745 9.319 8 10.5 8C11.618 7.94638 12.6809 7.49837 13.5 6.7355V9.2135C12.5781 9.71383 11.5488 9.98368 10.5 10C9.69775 9.97862 8.90531 9.81806 8.158 9.5255C7.30921 9.19742 6.40978 9.0196 5.5 9C4.0365 9 2.466 10.4795 1.5 11.579V9.147ZM5.5 2C6.367 2 7.161 2.4535 8.002 2.934C8.919 3.458 9.867 4 11 4C11.8438 3.98583 12.6829 3.87204 13.5 3.661V5.3215C13.1585 5.723 11.958 7 10.5 7C9.681 7 9.02 6.449 8.32 5.8655C7.5515 5.2255 6.681 4.5 5.5 4.5C4.032 4.5 2.4685 6.17 1.5 7.4225V4.212C2.273 3.483 4.1295 2 5.5 2ZM1.6245 13C2.431 11.9545 4.205 10 5.5 10C6.30225 10.0214 7.09469 10.1819 7.842 10.4745C8.69079 10.8026 9.59022 10.9804 10.5 11C11.536 10.9901 12.5582 10.7618 13.5 10.33V13H1.6245Z" fill="#E77C40"/>
</svg>
