<svg width="20" height="19" viewBox="0 0 20 19" fill="none" xmlns="http://www.w3.org/2000/svg">
<path d="M0.5 0.633333C0.5 0.465363 0.566728 0.304272 0.685505 0.185499C0.804281 0.066726 0.965377 0 1.13335 0H3.03341C3.17469 3.90279e-05 3.3119 0.0473109 3.42322 0.134298C3.53454 0.221285 3.61357 0.342993 3.64776 0.480067L4.16078 2.53333H18.8672C18.9602 2.53342 19.0521 2.55398 19.1362 2.59356C19.2204 2.63315 19.2948 2.69077 19.3541 2.76235C19.4135 2.83393 19.4564 2.9177 19.4797 3.00772C19.5031 3.09774 19.5063 3.19179 19.4892 3.2832L17.5891 13.4165C17.562 13.5617 17.4849 13.6927 17.3714 13.7871C17.2578 13.8815 17.1148 13.9332 16.9672 13.9333H5.56682C5.41917 13.9332 5.2762 13.8815 5.16263 13.7871C5.04907 13.6927 4.97204 13.5617 4.94487 13.4165L3.04608 3.3022L2.5394 1.26667H1.13335C0.965377 1.26667 0.804281 1.19994 0.685505 1.08117C0.566728 0.962395 0.5 0.801304 0.5 0.633333ZM4.42932 3.8L6.09251 12.6667H16.4415L18.1047 3.8H4.42932ZM6.83353 13.9333C6.16163 13.9333 5.51724 14.2002 5.04214 14.6753C4.56703 15.1504 4.30012 15.7948 4.30012 16.4667C4.30012 17.1385 4.56703 17.7829 5.04214 18.258C5.51724 18.7331 6.16163 19 6.83353 19C7.50543 19 8.14982 18.7331 8.62492 18.258C9.10003 17.7829 9.36694 17.1385 9.36694 16.4667C9.36694 15.7948 9.10003 15.1504 8.62492 14.6753C8.14982 14.2002 7.50543 13.9333 6.83353 13.9333ZM15.7005 13.9333C15.0286 13.9333 14.3842 14.2002 13.9091 14.6753C13.434 15.1504 13.1671 15.7948 13.1671 16.4667C13.1671 17.1385 13.434 17.7829 13.9091 18.258C14.3842 18.7331 15.0286 19 15.7005 19C16.3724 19 17.0168 18.7331 17.4919 18.258C17.967 17.7829 18.2339 17.1385 18.2339 16.4667C18.2339 15.7948 17.967 15.1504 17.4919 14.6753C17.0168 14.2002 16.3724 13.9333 15.7005 13.9333ZM6.83353 15.2C7.16948 15.2 7.49167 15.3335 7.72923 15.571C7.96678 15.8085 8.10023 16.1307 8.10023 16.4667C8.10023 16.8026 7.96678 17.1248 7.72923 17.3623C7.49167 17.5999 7.16948 17.7333 6.83353 17.7333C6.49758 17.7333 6.17539 17.5999 5.93783 17.3623C5.70028 17.1248 5.56682 16.8026 5.56682 16.4667C5.56682 16.1307 5.70028 15.8085 5.93783 15.571C6.17539 15.3335 6.49758 15.2 6.83353 15.2ZM15.7005 15.2C16.0364 15.2 16.3586 15.3335 16.5962 15.571C16.8337 15.8085 16.9672 16.1307 16.9672 16.4667C16.9672 16.8026 16.8337 17.1248 16.5962 17.3623C16.3586 17.5999 16.0364 17.7333 15.7005 17.7333C15.3645 17.7333 15.0423 17.5999 14.8048 17.3623C14.5672 17.1248 14.4338 16.8026 14.4338 16.4667C14.4338 16.1307 14.5672 15.8085 14.8048 15.571C15.0423 15.3335 15.3645 15.2 15.7005 15.2Z" fill="#252B42"/>
</svg>
