<svg width="174" height="32" viewBox="0 0 174 32" fill="none" xmlns="http://www.w3.org/2000/svg">
<path d="M100.241 31.1411L113.545 1.03265C113.756 0.575773 113.509 0.182856 112.997 0.182856H103.677C103.404 0.198354 103.14 0.286038 102.912 0.436946C102.684 0.587855 102.5 0.796578 102.379 1.04179L89.2394 31.1411C89.0476 31.6071 89.2943 31.9909 89.7968 31.9909H98.9436C99.4553 31.9909 100.04 31.6071 100.241 31.1411ZM147.949 23.036L168.6 0.191993H144.449L138.985 8.99151H148.46L127.471 32H153.029L162.55 23.036H147.949ZM59.5696 0.182856H43.5788C43.1048 0.210327 42.6464 0.362538 42.2501 0.624083C41.8537 0.885628 41.5335 1.24723 41.3219 1.67228L28.7394 30.5106C28.3739 31.3329 28.8216 32 29.7171 32H37.6394C38.5349 32 39.5583 31.3329 39.9055 30.5197L43.4966 22.3415H47.2156C48.3761 22.2684 48.8695 22.6979 48.2299 24.0411L45.4703 30.5106C45.1231 31.3329 45.5617 32 46.4572 32H54.3795C54.8554 31.975 55.3161 31.8239 55.7143 31.5622C56.1125 31.3005 56.4339 30.9375 56.6456 30.5106L60.2458 22.1862C61.3789 19.4815 59.7433 17.389 57.3675 17.2793C59.4691 16.5209 61.4063 14.4284 62.2744 12.5278L64.1385 8.14171C66.3863 3.04293 64.7872 0.118893 59.5696 0.191993M54.9095 9.28391L52.9357 13.6243C52.4789 14.666 51.821 14.7482 51.1631 14.7208H46.713L49.6919 7.95896H53.9592C55.0008 8.02292 55.2658 8.39756 54.9095 9.28391ZM90.6923 0.173718H73.7512C73.4119 0.1914 73.0834 0.298846 72.7992 0.485075C72.5151 0.671304 72.2855 0.92964 72.1339 1.23368L59.1676 30.9309C58.9209 31.5157 59.2224 31.9817 59.8621 31.9817H78.0002C83.7477 31.8995 87.0464 30.6293 89.6689 24.5437L91.533 20.4866C92.995 17.0143 91.5604 15.5066 88.8191 15.068C91.1035 14.3644 92.8214 12.2171 93.5615 10.3256L95.0784 7.10916C96.9424 2.81449 95.3891 0.118893 90.6832 0.173718M82.3771 20.0937L81.2258 22.4055C80.6501 24.0137 79.645 24.4523 78.2286 24.4706H72.9288L75.4691 18.4855H80.7689C82.2674 18.5951 82.8523 18.9606 82.3771 20.0937ZM85.4199 9.43925L84.625 11.2668L84.5062 11.5043C84.3742 11.8856 84.1198 12.2124 83.7826 12.4339C83.4454 12.6554 83.0444 12.7591 82.6421 12.7288H78.0459L80.1475 7.88586H84.8351C85.6758 7.94068 85.8128 8.48894 85.4199 9.43925ZM116.479 0.182856L112.54 8.99151H118.16C118.544 8.99151 118.726 9.26563 118.571 9.622L108.748 31.3695C108.584 31.7167 108.776 32 109.159 32H119.165C119.549 32 119.987 31.7167 120.143 31.3604L129.573 9.622C129.663 9.43915 129.8 9.28358 129.971 9.17119C130.141 9.05881 130.338 8.99364 130.541 8.98237H136.307L141.735 0.182856H116.479ZM33.4635 11.0201L34.7062 8.30618C37.2099 2.58605 35.556 0.12803 30.64 0.191993H18.8068C13.9365 0.12803 9.87937 2.86931 7.63152 7.96809L3.97647 18.2936H0.522461L7.12895 27.2119L18.0484 18.2936H15.2706L18.4779 10.8464C18.9987 9.622 19.8942 9.03719 20.8536 8.99151H22.7177C23.1563 9.00978 23.4578 9.14684 23.6315 9.33873L29.4247 4.46839L33.4635 11.0201Z" fill="#191825" fill-opacity="0.5"/>
<path d="M6.88232 29.8344L2.02112 23.6756L1.76526 24.2239C-0.491725 29.3592 -0.117083 31.9178 4.75326 31.9909H16.4311C21.2649 31.9178 25.4956 29.3592 27.7617 24.2239L31.234 16.265H34.3408L29.041 7.3376L18.2129 16.265H21.1827L18.9896 21.3364C18.4597 22.4146 17.6556 22.9995 16.7966 23.036H15.2432L6.88232 29.8344Z" fill="#191825" fill-opacity="0.5"/>
<path d="M172.446 0.000121574C172.876 0.000121574 173.241 0.155461 173.543 0.457002C173.845 0.758543 174 1.12405 174 1.55351C174 1.97384 173.845 2.33935 173.543 2.65003C173.241 2.96071 172.876 3.10691 172.446 3.10691C172.242 3.11005 172.039 3.07111 171.851 2.99251C171.662 2.91391 171.492 2.79733 171.35 2.65003C171.048 2.33935 170.893 1.97384 170.893 1.55351C170.893 1.13318 171.048 0.749405 171.35 0.457002C171.492 0.310133 171.662 0.193842 171.851 0.115274C172.04 0.0367063 172.242 -0.00248031 172.446 0.000121574ZM172.446 2.8145C172.614 2.81829 172.781 2.78783 172.936 2.72499C173.092 2.66214 173.233 2.56823 173.351 2.449C173.471 2.33132 173.565 2.19028 173.628 2.03467C173.691 1.87905 173.721 1.71216 173.717 1.54438C173.72 1.37812 173.689 1.21297 173.626 1.05902C173.563 0.905057 173.47 0.765513 173.351 0.648891C173.233 0.52922 173.092 0.435021 172.937 0.372144C172.781 0.309268 172.614 0.279057 172.446 0.283387C172.28 0.279772 172.115 0.310346 171.961 0.373218C171.807 0.436089 171.667 0.529918 171.551 0.648891C171.304 0.895607 171.185 1.19715 171.185 1.54438C171.185 1.89161 171.304 2.20228 171.551 2.449C171.798 2.69571 172.099 2.8145 172.446 2.8145ZM173.241 2.3759H172.876L172.419 1.71799H172.227V2.3759H171.898V0.703717H172.419C172.602 0.703717 172.748 0.749405 172.858 0.831644C172.967 0.92302 173.031 1.04181 173.031 1.19715C173.031 1.39818 172.922 1.55351 172.711 1.63575L173.241 2.3759ZM172.236 1.44386H172.41C172.62 1.44386 172.721 1.36162 172.721 1.20629C172.721 1.05095 172.629 0.977845 172.419 0.977845H172.236V1.44386Z" fill="#191825" fill-opacity="0.5"/>
</svg>
