<svg width="189" height="32" viewBox="0 0 189 32" fill="none" xmlns="http://www.w3.org/2000/svg">
<mask id="mask0_832_918" style="mask-type:luminance" maskUnits="userSpaceOnUse" x="0" y="0" width="189" height="32">
<path d="M188.696 0H0.0927734V32H188.696V0Z" fill="white"/>
</mask>
<g mask="url(#mask0_832_918)">
<mask id="mask1_832_918" style="mask-type:luminance" maskUnits="userSpaceOnUse" x="0" y="0" width="189" height="32">
<path d="M188.696 0H0.0927734V32H188.696V0Z" fill="white"/>
</mask>
<g mask="url(#mask1_832_918)">
<path d="M74.0498 3.50317C74.0498 1.92288 75.3317 0.633591 76.9194 0.633591C78.4997 0.633591 79.789 1.91551 79.789 3.50317C79.7337 5.08346 78.4002 6.31749 76.8162 6.26223C75.3133 6.20698 74.1087 5.00242 74.0498 3.50317Z" fill="#191825" fill-opacity="0.5"/>
</g>
<mask id="mask2_832_918" style="mask-type:luminance" maskUnits="userSpaceOnUse" x="0" y="0" width="189" height="32">
<path d="M188.696 0H0.0927734V32H188.696V0Z" fill="white"/>
</mask>
<g mask="url(#mask2_832_918)">
<path d="M119.274 22.6177C119.274 21.0264 120.556 19.7408 122.132 19.7408C123.72 19.7408 125.006 21.0264 125.006 22.6177C125.006 24.2054 123.72 25.491 122.132 25.491C120.556 25.491 119.274 24.2017 119.274 22.6177Z" fill="#191825" fill-opacity="0.5"/>
</g>
<mask id="mask3_832_918" style="mask-type:luminance" maskUnits="userSpaceOnUse" x="0" y="0" width="189" height="32">
<path d="M188.696 0H0.0927734V32H188.696V0Z" fill="white"/>
</mask>
<g mask="url(#mask3_832_918)">
<path d="M27.0205 21.3763C24.5561 21.3763 22.8359 19.4166 22.8359 16.6133C22.8359 13.8137 24.5524 11.854 27.0205 11.854C29.4996 11.854 31.2383 13.8137 31.2383 16.6133C31.2346 19.4608 29.5401 21.3763 27.0205 21.3763ZM27.0205 7.66939C21.8007 7.66939 18.0103 11.4304 18.0103 16.6133C18.0103 21.7962 21.8044 25.5573 27.0205 25.5573C32.266 25.5573 36.0676 21.7962 36.0676 16.617C36.0676 11.4304 32.2587 7.66939 27.0205 7.66939ZM68.5023 17.0627C68.3218 16.7128 68.0897 16.3849 67.8208 16.0976L67.6624 15.9318L67.8281 15.7735C68.0676 15.5193 68.3144 15.2209 68.5465 14.8746L73.1547 8.02302H67.5592L64.0966 13.3827C63.9014 13.6738 63.5072 13.8101 62.9141 13.8101H62.1221V3.67629C62.1221 1.65027 60.8623 1.37769 59.4957 1.37769H57.1602L57.1639 25.292H62.1185V18.1236H62.5826C63.1462 18.1236 63.5293 18.1899 63.7098 18.4957L66.4431 23.6565C67.2093 25.0563 67.9681 25.2957 69.3974 25.2957H73.2063L70.3736 20.6212L68.5023 17.0627ZM92.5713 7.63255C90.048 7.63255 88.4383 8.75238 87.5394 9.70277L87.2411 10.0085L87.1342 9.59594C86.869 8.57925 85.9776 8.0267 84.633 8.0267H82.4118L82.4265 25.2957H87.3516V17.339C87.3516 16.5581 87.451 15.8876 87.6573 15.2688C88.2062 13.4049 89.7349 12.2408 91.643 12.2408C93.1791 12.2408 93.7832 13.0512 93.7832 15.1509V22.6729C93.7832 24.4595 94.6084 25.2994 96.4023 25.2994H98.7415L98.7304 14.3147C98.7304 9.93484 96.5976 7.63255 92.5713 7.63255ZM76.9821 8.02302H74.6466L74.6613 21.3763V25.292H77.1515L77.2399 25.2957L78.4039 25.292H79.5569V25.2884H79.568L79.579 10.6495C79.5717 8.88131 78.7281 8.02302 76.9821 8.02302ZM46.3561 21.3763C43.8917 21.3763 42.1714 19.4166 42.1714 16.6133C42.1714 13.8137 43.8917 11.854 46.3561 11.854C48.8315 11.854 50.5739 13.8137 50.5739 16.6133C50.5702 19.4608 48.8757 21.3763 46.3561 21.3763ZM46.3561 7.66939C41.1326 7.66939 37.3384 11.4304 37.3384 16.6133C37.3384 21.7962 41.1326 25.5573 46.3561 25.5573C51.5905 25.5573 55.4031 21.7962 55.4031 16.617C55.4031 11.4304 51.5942 7.66939 46.3561 7.66939Z" fill="#191825" fill-opacity="0.5"/>
</g>
</g>
<mask id="mask4_832_918" style="mask-type:luminance" maskUnits="userSpaceOnUse" x="0" y="0" width="189" height="32">
<path d="M188.696 0H0.0927734V32H188.696V0Z" fill="white"/>
</mask>
<g mask="url(#mask4_832_918)">
<mask id="mask5_832_918" style="mask-type:luminance" maskUnits="userSpaceOnUse" x="0" y="0" width="189" height="32">
<path d="M188.656 0.629913H0.0927734V31.9595H188.656V0.629913Z" fill="white"/>
</mask>
<g mask="url(#mask5_832_918)">
<mask id="mask6_832_918" style="mask-type:luminance" maskUnits="userSpaceOnUse" x="0" y="0" width="189" height="32">
<path d="M188.696 0H0.0927734V32H188.696V0Z" fill="white"/>
</mask>
<g mask="url(#mask6_832_918)">
<path d="M151.885 21.3763C149.421 21.3763 147.701 19.4166 147.701 16.6133C147.701 13.8137 149.421 11.854 151.885 11.854C154.364 11.854 156.103 13.8137 156.103 16.6133C156.103 19.4608 154.405 21.3763 151.885 21.3763ZM151.885 7.66939C146.662 7.66939 142.868 11.4304 142.868 16.6133C142.868 21.7962 146.654 25.5573 151.885 25.5573C157.123 25.5573 160.932 21.7962 160.932 16.617C160.932 11.4304 157.12 7.66939 151.885 7.66939Z" fill="#191825" fill-opacity="0.5"/>
</g>
<mask id="mask7_832_918" style="mask-type:luminance" maskUnits="userSpaceOnUse" x="0" y="0" width="189" height="32">
<path d="M188.696 0H0.0927734V32H188.696V0Z" fill="white"/>
</mask>
<g mask="url(#mask7_832_918)">
<path d="M109.107 20.6101C106.414 20.6101 105.46 18.2636 105.46 16.0645C105.46 15.092 105.707 11.9351 108.857 11.9351C110.418 11.9351 112.5 12.3845 112.5 16.2229C112.496 19.8513 110.651 20.6101 109.107 20.6101ZM115.053 7.97883C114.117 7.97883 113.399 8.35088 113.038 9.03236L112.905 9.29758L112.677 9.09498C111.881 8.40613 110.455 7.59204 108.146 7.59204C103.541 7.59204 100.443 11.0473 100.443 16.1971C100.443 21.3395 103.652 24.9311 108.241 24.9311C109.807 24.9311 111.048 24.5627 112.028 23.8186L112.404 23.535V24.0138C112.404 26.3235 110.912 27.5943 108.208 27.5943C106.89 27.5943 105.696 27.2739 104.897 26.9829C103.854 26.6661 103.239 26.9313 102.819 27.9738L102.425 28.9389L101.872 30.3497L102.215 30.5302C103.946 31.4511 106.201 31.9963 108.234 31.9963C112.426 31.9963 117.322 29.8524 117.322 23.8112L117.336 7.96778H115.053" fill="#191825" fill-opacity="0.5"/>
</g>
</g>
</g>
<mask id="mask8_832_918" style="mask-type:luminance" maskUnits="userSpaceOnUse" x="0" y="0" width="189" height="32">
<path d="M188.696 0H0.0927734V32H188.696V0Z" fill="white"/>
</mask>
<g mask="url(#mask8_832_918)">
<mask id="mask9_832_918" style="mask-type:luminance" maskUnits="userSpaceOnUse" x="0" y="0" width="189" height="32">
<path d="M188.696 0H0.0927734V32H188.696V0Z" fill="white"/>
</mask>
<g mask="url(#mask9_832_918)">
<path d="M8.68677 21.1737L4.67525 21.17V16.3813C4.67525 15.3535 5.07309 14.8267 5.94612 14.7015H8.6794C10.6281 14.7015 11.8879 15.9318 11.8952 17.921C11.8952 19.9655 10.6649 21.1737 8.68677 21.1737ZM4.67525 8.25141V6.99159C4.67525 5.88649 5.1394 5.36341 6.16714 5.29711H8.21894C9.97605 5.29711 11.0296 6.35063 11.0296 8.11143C11.0296 9.45597 10.3076 11.0215 8.28156 11.0215H4.67525V8.25141ZM13.7997 13.0328L13.0777 12.6239L13.7076 12.0824C14.448 11.4525 15.6747 10.0269 15.6747 7.56993C15.6747 3.80891 12.7609 1.38506 8.24841 1.38506H2.51663C1.17945 1.43294 0.107508 2.52699 0.0927734 3.86416V25.2H8.35524C13.3724 25.2 16.6066 22.4704 16.6066 18.2415C16.6066 15.9724 15.5568 14.0237 13.7997 13.0328Z" fill="#191825" fill-opacity="0.5"/>
</g>
<mask id="mask10_832_918" style="mask-type:luminance" maskUnits="userSpaceOnUse" x="0" y="0" width="189" height="32">
<path d="M188.696 0H0.0927734V32H188.696V0Z" fill="white"/>
</mask>
<g mask="url(#mask10_832_918)">
<path d="M182.924 7.68781C180.869 7.69149 178.92 8.6382 177.638 10.2516L177.281 10.7011L177.001 10.1964C176.087 8.53137 174.522 7.6915 172.334 7.6915C170.046 7.6915 168.51 8.96604 167.795 9.72856L167.331 10.2332L167.151 9.56648C166.893 8.60873 166.038 8.08196 164.749 8.08196H162.679L162.657 25.2847H167.357V17.689C167.357 17.0222 167.438 16.3665 167.604 15.6777C168.053 13.8432 169.287 11.8688 171.361 12.064C172.636 12.1893 173.262 13.1765 173.262 15.0809V25.281H177.995V17.6853C177.995 16.8528 178.073 16.2265 178.261 15.6077C178.636 13.8543 179.929 12.0566 181.93 12.0566C183.377 12.0566 183.915 12.8744 183.915 15.0809V22.765C183.915 24.5001 184.689 25.281 186.427 25.281H188.637L188.641 14.3C188.656 9.90906 186.722 7.68781 182.924 7.68781ZM140.146 19.3098C140.131 19.3245 138.109 21.461 135.445 21.461C133.018 21.461 130.568 19.9728 130.568 16.6502C130.568 13.7806 132.469 11.773 135.191 11.773C136.075 11.773 137.077 12.0898 137.236 12.6202L137.258 12.7086C137.464 13.4638 138.153 13.9832 138.93 13.9795L141.505 13.9832V11.7288C141.505 8.75607 137.729 7.68413 135.184 7.68413C129.747 7.68413 125.805 11.4673 125.805 16.6796C125.805 21.8883 129.706 25.6715 135.084 25.6715C139.752 25.6715 142.286 22.603 142.312 22.5772L142.444 22.4114L140.404 19.0261L140.146 19.3098Z" fill="#191825" fill-opacity="0.5"/>
</g>
</g>
</svg>
