<svg width="104" height="32" viewBox="0 0 104 32" fill="none" xmlns="http://www.w3.org/2000/svg">
<path d="M54.8373 8.04048C54.8373 9.19374 53.908 10.1224 52.7548 10.1224C51.6015 10.1224 50.6729 9.19374 50.6729 8.04048C50.6729 6.88723 51.5698 5.9586 52.7548 5.9586C53.9407 5.9906 54.8373 6.91955 54.8373 8.04048ZM46.2525 12.2369V12.7495C46.2525 12.7495 45.2599 11.4676 43.1457 11.4676C39.6546 11.4676 36.9314 14.1264 36.9314 17.8099C36.9314 21.4617 39.6226 24.1522 43.1457 24.1522C45.2919 24.1522 46.2525 22.8389 46.2525 22.8389V23.3832C46.2525 23.6395 46.4451 23.8312 46.7011 23.8312H49.2953V11.787H46.7011C46.4451 11.7879 46.2525 12.0126 46.2525 12.2369ZM46.2525 19.9561C45.7725 20.661 44.8112 21.2697 43.6583 21.2697C41.6084 21.2697 40.0385 19.9884 40.0385 17.8099C40.0385 15.6317 41.6084 14.3504 43.6583 14.3504C44.7796 14.3504 45.8045 14.9911 46.2525 15.6637V19.9561ZM51.2175 11.7879H54.2923V23.8322H51.2175V11.7879ZM97.151 11.4673C95.0368 11.4673 94.0435 12.7492 94.0435 12.7492V5.9906H90.9687V23.8322H93.5635C93.8199 23.8322 94.0115 23.6078 94.0115 23.3835V22.8392C94.0115 22.8392 95.0048 24.1525 97.1184 24.1525C100.61 24.1525 103.333 21.4626 103.333 17.8108C103.333 14.1591 100.61 11.4673 97.151 11.4673ZM96.6384 21.2373C95.4528 21.2373 94.5242 20.6293 94.0435 19.9241V15.6317C94.5242 14.9911 95.5491 14.3184 96.6384 14.3184C98.6882 14.3184 100.258 15.5997 100.258 17.7779C100.258 19.9561 98.6886 21.2373 96.6384 21.2373ZM89.3675 16.6893V23.8642H86.292V17.0413C86.292 15.0557 85.6514 14.2544 83.9228 14.2544C82.9942 14.2544 82.0329 14.7351 81.4233 15.44V23.8325H78.3491V11.7882H80.7827C81.039 11.7882 81.2313 12.0126 81.2313 12.2369V12.7495C82.1283 11.8202 83.3132 11.4676 84.4981 11.4676C85.8437 11.4676 86.965 11.8526 87.8619 12.6212C88.9505 13.5181 89.3675 14.6711 89.3675 16.6893ZM70.8846 11.4673C68.7711 11.4673 67.7778 12.7492 67.7778 12.7492V5.9906H64.703V23.8322H67.2972C67.5535 23.8322 67.7458 23.6078 67.7458 23.3835V22.8392C67.7458 22.8392 68.7391 24.1525 70.8526 24.1525C74.3444 24.1525 77.0669 21.4626 77.0669 17.8108C77.0989 14.1588 74.3764 11.4673 70.8846 11.4673ZM70.372 21.2373C69.1871 21.2373 68.2585 20.6293 67.7778 19.9241V15.6317C68.2585 14.9911 69.2834 14.3184 70.372 14.3184C72.4225 14.3184 73.9918 15.5997 73.9918 17.7779C73.9918 19.9561 72.4225 21.2373 70.372 21.2373ZM62.0442 11.4673C62.9728 11.4673 63.4534 11.6279 63.4534 11.6279V14.4784C63.4534 14.4784 60.8909 13.6135 59.2897 15.4397V23.8638H56.2142V11.7879H58.8091C59.0654 11.7879 59.257 12.0122 59.257 12.2366V12.7492C59.8343 12.0762 61.0836 11.4673 62.0442 11.4673ZM30.1091 22.7429C29.9491 22.3586 29.7888 21.9423 29.6288 21.5897C29.3722 21.0133 29.1159 20.4684 28.8922 19.9561L28.8602 19.9241C26.6497 15.1191 24.2798 10.2507 21.781 5.4463L21.685 5.25365C21.4222 4.75525 21.1661 4.25336 20.9167 3.74809C20.5961 3.17114 20.2761 2.56315 19.7634 1.9862C18.7385 0.704946 17.2649 0 15.6957 0C14.0938 0 12.6525 0.70495 11.5959 1.92189C11.1153 2.49819 10.7627 3.10683 10.4427 3.68377C10.1927 4.18872 9.93655 4.69061 9.67436 5.18934L9.57804 5.38197C7.11153 10.1864 4.70934 15.0551 2.49914 19.8598L2.46683 19.9234C2.24283 20.4367 1.9862 20.981 1.72988 21.557C1.56988 21.9096 1.40989 22.294 1.24989 22.7103C0.83326 23.8952 0.704936 25.0165 0.865573 26.17C1.21789 28.5726 2.81913 30.5898 5.02965 31.4874C5.86259 31.84 6.72754 32 7.62416 32C7.88047 32 8.20047 31.968 8.45711 31.9357C9.51437 31.8077 10.6033 31.4557 11.6606 30.8471C12.9738 30.1101 14.2231 29.0535 15.6323 27.5159C17.0416 29.0535 18.3228 30.1101 19.6041 30.8471C20.6617 31.4557 21.7503 31.8077 22.8072 31.9357C23.0635 31.9683 23.3842 32 23.6405 32C24.5374 32 25.434 31.84 26.2347 31.4874C28.4772 30.5898 30.0464 28.5406 30.3991 26.17C30.6535 25.0491 30.5255 23.9285 30.1091 22.7429ZM15.6634 24.4085C13.9335 22.2303 12.8122 20.1804 12.4282 18.4512C12.2682 17.7142 12.2359 17.0736 12.3322 16.497C12.3959 15.9843 12.5885 15.5357 12.8449 15.1514C13.4535 14.2871 14.4784 13.7421 15.6637 13.7421C16.8493 13.7421 17.9062 14.2548 18.4828 15.1514C18.7391 15.5357 18.9311 15.9846 18.9958 16.497C19.0915 17.0739 19.0595 17.7462 18.8995 18.4512C18.5139 20.1484 17.3926 22.1986 15.6634 24.4085ZM28.4433 25.914C28.2193 27.5796 27.098 29.0215 25.5288 29.6621C24.7601 29.9821 23.9269 30.0784 23.0946 29.9821C22.2939 29.8858 21.4927 29.6295 20.6604 29.1495C19.5071 28.5082 18.3542 27.5159 17.0086 26.042C19.1225 23.4478 20.4037 21.077 20.8844 18.9635C21.1087 17.9702 21.141 17.0736 21.0444 16.2403C20.9167 15.4397 20.6281 14.7027 20.1797 14.0621C19.1862 12.6202 17.5203 11.7879 15.663 11.7879C13.8058 11.7879 12.1399 12.6529 11.147 14.0621C10.6987 14.7027 10.41 15.4397 10.282 16.2403C10.154 17.0736 10.1857 18.0022 10.442 18.9635C10.9223 21.077 12.2356 23.4795 14.3175 26.074C13.0042 27.5476 11.819 28.5409 10.6657 29.1815C9.83275 29.6621 9.03245 29.9184 8.23183 30.0141C7.36721 30.1104 6.53394 29.9821 5.79732 29.6941C4.22807 29.0535 3.10681 27.6116 2.88282 25.946C2.78682 25.1454 2.8505 24.3448 3.17113 23.4478C3.26681 23.1272 3.42744 22.8072 3.58744 22.4229C3.81176 21.9103 4.06743 21.3653 4.32407 20.821L4.35639 20.7573C6.56627 15.9843 8.93646 11.1156 11.403 6.37523L11.499 6.1826C11.7556 5.70261 12.0119 5.18998 12.2679 4.70935C12.5242 4.19672 12.8122 3.71609 13.1648 3.29945C13.8375 2.53147 14.7341 2.11452 15.7274 2.11452C16.7206 2.11452 17.6172 2.53147 18.2899 3.29945C18.6425 3.71705 18.9305 4.19768 19.1868 4.70935C19.4434 5.18998 19.6998 5.70261 19.9554 6.1826L20.0517 6.37523C22.4806 11.1353 24.8194 15.9409 27.0666 20.7893V20.8213C27.3233 21.3346 27.5473 21.9106 27.8036 22.4239C27.9636 22.8075 28.1239 23.1275 28.2199 23.4482C28.4756 24.2802 28.5716 25.0814 28.4433 25.914Z" fill="#191825" fill-opacity="0.5"/>
</svg>
