<svg width="24" height="25" viewBox="0 0 24 25" fill="none" xmlns="http://www.w3.org/2000/svg">
<path d="M11.9688 2.5C6.44875 2.5 1.96875 6.98 1.96875 12.5C1.96875 18.02 6.44875 22.5 11.9688 22.5C17.4888 22.5 21.9688 18.02 21.9688 12.5C21.9688 6.98 17.4988 2.5 11.9688 2.5ZM14.9688 14.73L12.0687 16.4C11.7087 16.61 11.3088 16.71 10.9187 16.71C10.5188 16.71 10.1287 16.61 9.76875 16.4C9.04875 15.98 8.61875 15.24 8.61875 14.4V11.05C8.61875 10.22 9.04875 9.47 9.76875 9.05C10.4888 8.63 11.3487 8.63 12.0787 9.05L14.9787 10.72C15.6987 11.14 16.1287 11.88 16.1287 12.72C16.1287 13.56 15.6987 14.31 14.9688 14.73Z" fill="#5D50C6"/>
</svg>
